<svg xmlns="http://www.w3.org/2000/svg" width="175" height="175" fill="none"><path fill="#7A3134" d="M54.117 5.95S44.874-.21 37.85 7.06c-7.024 7.27-2.588 19.472-9.982 27.729-7.393 8.257-5.052 22.798 9.12 23.415 14.172.616 22.798-1.355 21.689-18.486-1.11-17.13-4.56-33.767-4.56-33.767"/><path fill="#F68388" d="M42.605 86.239c3.038.112 7.014.806 11.282 1.598 9.43-3.7 18.82-7.495 27.954-11.878-2.219-6.83-7.763-11.804-13.506-12.862-8.062-1.486-3.441-22.283-3.441-22.283L48.078 47.36s3.104 7.303.384 12.887c-1.166 2.394-4.392 2.355-8.018 2.317-4.837-.051-10.388-.102-12.72 5.613-4.08 10 2.861 17.615 14.881 18.063"/><path fill="#E5ACAE" d="M48.714 59.687c.249-.748.433-1.494.567-2.227l.082-.021a11.089 11.089 0 0 1-.65 2.248Zm14.998-10.608c.28-3.694.905-6.93 1.112-7.94l.61-.297s-.874 2.64-1.065 7.498c-.22.25-.44.497-.657.738Z"/><path fill="#A04D50" d="M49.28 57.46c.182-.993.27-1.96.295-2.866a14.4 14.4 0 0 1-.212 2.845l-.082.02Z"/><path fill="#F57778" d="M48.4 60.54c.115-.283.219-.569.314-.853a11.09 11.09 0 0 0 .65-2.248c.172-.954.23-1.916.212-2.845.094-3.257-.61-5.712-.61-5.712l15.858-7.742a66.69 66.69 0 0 0-1.112 7.938C58.485 54.87 53.847 57.731 48.4 60.54Z"/><path fill="#F68388" d="M55.349 9.895s-16.47-1.129-19.1 19.678C33.632 50.255 48.566 60.142 63.482 49.7c12.323-8.628 13.553-39.625-8.134-39.806"/><path fill="#A1444B" d="M48.325 9.895s-3.327 10.598 13.063 13.679C74.32 26.005 53.5 48.838 63.852 55.37c0 0 15.034 7.763 20.827-3.451 5.389-10.435-5.176-12.201-2.218-28.468 0 0 2.095-9.983-6.901-17.993-4.892-4.356-25.017-11.584-27.235 4.437"/><path fill="#F68388" d="M70.284 29.78s-.336 6.05-2.62 9.093c0 0 5.998.702 6.83-3.538.833-4.239-.918-5.973-4.21-5.556Z"/><path fill="#29202E" d="M58.346 31.768c-.1 1.422-.626 2.543-1.176 2.505-.551-.038-.916-1.223-.817-2.645.1-1.422.626-2.543 1.177-2.505.55.039.916 1.223.816 2.645Zm-15.104-1.223c-.1 1.421-.627 2.543-1.177 2.505-.55-.04-.916-1.223-.816-2.645.099-1.422.626-2.543 1.176-2.505.55.039.917 1.222.817 2.645"/><path fill="#DA6270" d="M45.047 28.604c-.1.754-.216 1.504-.37 2.244a52.214 52.214 0 0 1-.466 2.219 69.903 69.903 0 0 1-1.172 4.377l-.206-.33 1.537.413c.508.157 1.018.301 1.52.484-.533-.029-1.06-.097-1.589-.151l-1.575-.221-.268-.037.062-.293a69.424 69.424 0 0 1 1.095-4.396c.203-.727.433-1.448.668-2.167.224-.722.486-1.434.764-2.142"/><path fill="#29202E" d="M37.141 24.692s.26-.54.934-1.108c.176-.13.355-.295.583-.411.218-.135.46-.265.732-.36.262-.115.566-.168.868-.227.313-.022.632-.062.956-.003.327.027.638.126.935.248.307.098.547.31.8.465.232.18.409.405.59.593.179.19.28.42.396.607.244.371.306.748.383.986.063.245.085.386.085.386s-.122-.09-.312-.25c-.093-.08-.208-.174-.325-.29-.113-.119-.266-.225-.42-.344-.162-.111-.31-.26-.489-.372-.187-.102-.366-.228-.557-.329-.207-.067-.39-.2-.606-.243-.21-.057-.418-.128-.641-.135-.216-.054-.444-.02-.668-.036-.225.03-.454.027-.677.078-.224.038-.446.075-.657.136-.212.047-.41.12-.604.166-.75.245-1.306.443-1.306.443m14.784 1.035s.072-.175.259-.448c.09-.14.214-.296.363-.473.161-.163.33-.373.56-.544a4.42 4.42 0 0 1 .767-.54 4.96 4.96 0 0 1 .979-.437c.36-.112.744-.201 1.15-.213.401-.064.808.035 1.216.063.385.119.794.2 1.143.38.341.189.71.334.986.575.285.227.564.445.795.676.224.241.42.48.598.7.19.207.319.434.431.634.118.195.209.373.285.516.15.29.222.46.222.46s-.163-.102-.425-.29c-.273-.175-.598-.486-1.045-.77a13.39 13.39 0 0 1-.692-.477c-.247-.158-.528-.281-.793-.445-.261-.175-.574-.242-.855-.386-.292-.122-.603-.17-.902-.265-.31-.017-.616-.112-.923-.081-.153.007-.306-.006-.458.005l-.45.06a6.82 6.82 0 0 0-.857.2c-.27.091-.532.175-.768.28-.475.201-.872.407-1.148.565-.28.151-.438.255-.438.255"/><path fill="#fff" d="M42.651 42.067s8.32 6.263 13.979-.205Z"/><path fill="#DA6270" d="M70.791 37.713a1.94 1.94 0 0 0 .421-.627.703.703 0 0 0-.026-.628.991.991 0 0 0-.207-.245 3.074 3.074 0 0 0-.28-.2c-.11-.053-.208-.117-.321-.163l-.34-.137-.224-.091.06-.245c.155-.623.343-1.224.575-1.819a9.14 9.14 0 0 1 .861-1.729c.19-.27.39-.544.687-.764.154-.104.327-.21.549-.229a.77.77 0 0 1 .592.175 1.4 1.4 0 0 1 .345.41c.088.146.148.299.205.45.113.304.177.616.227.927-.143-.282-.284-.561-.446-.82-.158-.257-.352-.502-.561-.624-.21-.118-.38-.046-.577.127a3.09 3.09 0 0 0-.505.673c-.296.515-.54 1.076-.77 1.644a35.557 35.557 0 0 0-.64 1.731l-.162-.336.365.195c.12.066.234.157.35.234.112.087.22.187.316.298.094.118.18.244.232.394.118.3.041.643-.119.87a1.709 1.709 0 0 1-.606.529"/><path fill="#FCD0B0" d="M29.509 80.819s-7.75 7.845.3 19.11l.554 11.765s8.97 4.056 39.579-.57l6.9-28.44-47.333-1.865"/><path fill="#E0D7DA" d="m69.942 111.124 5.306-21.877-5.306 21.877Zm-39.969-7.707-.164-3.487-.023-.032.023.032.164 3.487Zm-.194-3.53-.014-.018c.005.005.01.012.014.019Zm-.027-.038-.005-.007.005.007Z"/><path fill="#362938" d="M44.55 113.339h.012-.013Zm-.002 0c-6.297 0-10.131-.586-12.199-1.059 2.067.473 5.903 1.059 12.199 1.059Zm24.654-2.104.201-.03-.201.03Zm.22-.032.006-.001-.005.001Zm.075-.012Zm.187-.028.14-.021-.14.021Z"/><path fill="#E9B69E" d="M44.55 113.339h-.002c-6.296 0-10.132-.586-12.199-1.059.338-1.007-.145-1.966-.145-1.966l.596.003c9.92-.001-.814-2.3-.814-2.3 13.544-1.655.494-2.298.494-2.298 10.936-.644-.552-1.747-.552-1.747 14.133-.165 2.817-1.908-.313-1.908-.35 0-.6.022-.698.07-.291.144-.623.648-.944 1.283l-.164-3.487-.023-.032a.135.135 0 0 1-.007-.01.094.094 0 0 0-.014-.019l-.014-.02-.004-.007a22.322 22.322 0 0 1-2.012-3.43c1.041.407 2.076.778 3.064 1.123 3.833 1.342 7.704 2.161 11.665 2.161 1.666 0 3.348-.144 5.05-.457 6.647-1.219 13.595-3.207 19.816-5.593 2.71-1.04 5.529-2.234 7.622-4.121.101-.091.197-.186.296-.278l-5.306 21.877-.119.018-.139.021-.026.004-.16.024-.07.011-.005.001a.129.129 0 0 0-.02.002l-.201.03c-10.734 1.592-18.761 2.103-24.64 2.104h-.013"/><path fill="#FCD0B0" d="M43.42 62.213c-3.499-.553-14.411-1.565-21.109 5.862-.892.99-15.33 15.979-19.453 28.346 3.148 4.207 2.158 6.697 8.245 9.618 2.26-2.715 20.728-24.692 22.12-25.702 3.165-2.295 7.612-10.512 9.875-14.977a37.52 37.52 0 0 1 .322-3.147Z"/><path fill="#FCD0B0" d="M71.202 63.773C69.65 67 64.872 74.772 55.301 73.405c-10.004-1.43-11.445-8.8-11.647-11.237-1.42-.04-2.934-.087-3.094-.055C26.442 64.975 24.09 81.69 24.09 81.69l12.49 7.684 34.6.644 13.663-10.659c-2.974-11.505-7.163-13.308-13.64-15.586Z"/><path fill="#E5ACAE" d="M103.453 109.685v-.001.001Zm0-.011Zm0-.009v-.002.002Zm0-.011v-.002.002Zm0-.008v-.003.003Zm0-.011v-.003.003Zm0-.009v-.004.004Zm0-.011v-.004.004Zm0-.008v-.006.006Zm0-.011v-.004.004Zm-.001-.008v-.008.008Zm0-.01v-.005.005Zm-.001-.007v-.01.01Zm0-.012a.85.85 0 0 0-.077-.318c-1.08-2.231-6.563-2.541-9.521-2.541 2.958 0 8.441.31 9.521 2.541a.85.85 0 0 1 .077.318Zm-11.462-2.815Z"/><path fill="#F57778" d="M97.492 119.052a124.695 124.695 0 0 1-10.099-5.448l3.301-5.937 1.26-.921.035-.002a42.648 42.648 0 0 1 1.864-.044c2.958 0 8.441.31 9.521 2.541a.855.855 0 0 1 .077.318v.012l.001.002v.015l.001.004v.103l-.001.01-.001.01c-.078 1.593-2.604 5.27-5.96 9.337"/><path fill="#FCD0B0" d="m72.305 85.886 18.034 19.581-2.748 4.695 12.825 7.329s6.584-7.215 5.553-13.054c-1.03-5.84-22.5-38.819-32.462-39.678l-1.202 21.127"/><path fill="#29202E" d="m44.084 92.52 1.38 5.84h1.593l-1.487-3.61-1.274.106"/><path fill="#5B94C0" d="M37.077 61.412h3.716s3.49 21.714 6.582 34.081l-3.092.687s-6.863-19.997-7.206-34.768Z"/><path fill="#29202E" d="m56.266 94.74-3.014 5.189 1.157 1.095 1.403-3.643-.998-.8"/><path fill="#5B94C0" d="M70.416 62.526s-9.239 19.377-16.671 34.241l2.93 2.173s12.358-21.284 17.519-34.696l-3.778-1.718Z"/><path fill="#fff" d="m54.853 111.104-15.618-4.749 2.998-9.86 15.618 4.749-2.998 9.86Zm-18.501 2.357a2.345 2.345 0 0 1-4.655-.566l2.672-21.987a2.345 2.345 0 1 1 4.656.566l-2.672 21.987"/><path fill="#29202E" d="M30.575 79.989a7.43 7.43 0 1 0 14.75 1.793l.586-4.816a7.43 7.43 0 1 0-14.75-1.793l-.586 4.816Z"/><path fill="#5B94C0" d="m43.72 101.903-16.406-1.995 1.83-15.052 16.405 1.994-1.83 15.053Z"/><path fill="#fff" d="m35.836 91.274-2.114-.258-.68 5.597-2.021-.246.68-5.597-2.125-.258.215-1.76 6.259.76-.214 1.762Zm3.167-1.403.855 4.994 2.005-4.646 2.124.258-3.6 7.03-1.678-.205-1.84-7.69 2.134.26"/><path fill="#F68388" d="m6.946 94.629 1.532.21 20.05 12.258s1.416-4.482 2.39-4.963c.973-.48 16.726 1.655 1.01 1.838 0 0 11.488 1.103.552 1.747 0 0 13.05.643-.494 2.298 0 0 11.154 2.389.218 2.297 0 0 1.399 2.779-2.232 3.843C26.34 115.221.758 107.166.568 103.75c-.19-3.418 6.378-9.121 6.378-9.121"/><path fill="#E5ACAE" d="m1.834 105.294-.002-.002.002.002Zm-.01-.008-.002-.002.002.002Zm-.012-.009-.005-.004.005.004Zm-.009-.007-.006-.004a.022.022 0 0 0 .006.004Zm-.008-.006c-.638-.471-1.052-.909-1.183-1.297.131.388.545.826 1.183 1.297Zm-1.183-1.297-.007-.02.007.02Zm-.007-.02c-.002-.007-.003-.013-.006-.019.003.006.004.012.006.019Zm-.006-.02c0-.005-.002-.009-.004-.014l.004.014Zm-.004-.015-.001-.004.001.004Zm-.001-.005-.003-.013.003.013Zm-.004-.015v-.003.003Zm-.002-.005v-.003.003Zm-.001-.009-.001-.002v.002Zm-.002-.005v-.003.003Zm0-.006-.001-.003v.003Zm-.002-.008v-.003.003Zm-.002-.006v-.002.002Zm0-.006-.001-.002v.002Zm-.002-.008v-.002.002Zm-.002-.005v-.003.003Zm0-.006v-.003.003Zm-.001-.007v-.003.003Zm-.002-.007v-.002.002Zm0-.006v-.001.001Zm-.001-.007v-.001.001Zm-.001-.006v-.002.002Zm0-.006v-.002.002Zm-.002-.007v-.002.002Zm0-.006v-.002.002Zm0-.007v-.001.001Zm-.001-.006v-.002.002Zm0-.006v-.002.002Z"/><path fill="#F57778" d="M19.325 112.289c-6.691-1.898-14.488-4.801-17.49-6.995l-.003-.002-.008-.006-.002-.002-.01-.007-.005-.004-.004-.003a.022.022 0 0 1-.006-.004l-.003-.002c-.637-.471-1.05-.909-1.182-1.297l-.007-.02c-.002-.007-.003-.013-.006-.019v-.001l-.004-.014v-.001l-.001-.004v-.001l-.003-.013-.001-.002v-.003c0-.001 0-.002-.002-.002v-.003l-.001-.006-.001-.002v-.003c0-.001 0-.002-.002-.003v-.006l-.001-.005v-.003l-.002-.003v-.006l-.001-.002-.001-.006v-.002c0-.001 0-.002-.002-.003v-.009l-.001-.004v-.003a.01.01 0 0 0-.002-.004v-.007l-.001-.006v-.001l-.001-.005v-.008c0-.001 0-.003-.002-.005v-.014l-.001-.005v-.013a2.479 2.479 0 0 1-.005-.152c.006-3.431 6.382-8.97 6.382-8.97l1.532.212 13.868 8.478a48.34 48.34 0 0 1-3.021 8.971"/><path fill="#FCD0B0" d="M6.656 88.349s-8.363 13.877-6.34 16.359c2.02 2.481 15.714 7.076 15.714 7.076l3.676-10.109-8.638-6.25-4.412-7.076Z"/></svg>