<svg xmlns="http://www.w3.org/2000/svg" width="175" height="175" fill="none" viewBox="0 0 112 125"><path fill="#F68A20" d="m104.151 10.351-6.883 7.395 4.621-8.614 2.262 1.22Zm6.993 11.022-10.947.612 10.453-2.88.494 2.268Zm-2.24 11.037-9.191-5.185 10.363 3.112-1.172 2.072ZM92.327 7.386l-2.218 9.302-.438-9.49 2.656.188Z"/><path fill="#282346" d="M88.763 27.966c.02.001.038.006.058.006-.02 0-.038-.005-.058-.006Z"/><path fill="#27242A" d="M88.738 27.963c.009 0 .018.002.026.003-.008 0-.017-.003-.026-.003"/><path fill="#28252B" d="M88.698 27.959a.538.538 0 0 0 .04.004h.001l-.04-.004"/><path fill="#232025" d="M87.968 26.247c-.004.008-.008.014-.01.022.002-.008.006-.014.01-.022Z"/><path fill="#222024" d="m88.32 25.77-.041.038v.001l.04-.039Zm-.309.388Zm.112-.175h-.001c-.017.024-.035.047-.051.072.016-.025.034-.048.052-.072Zm.599-.423h-.002a.909.909 0 0 0 .002 0Zm.207-.028a.915.915 0 0 0-.206.026h-.001a.931.931 0 0 1 .207-.026Z"/><path fill="#181315" d="m88.722 25.558-.002.001h.002Zm.21-.028h-.003.003Z"/><path fill="#161315" d="M88.55 27.929Z"/><path fill="#171315" d="M87.957 26.27c-.005.01-.012.02-.016.03.004-.01.011-.02.016-.03Z"/><path fill="#181315" d="M88.07 26.055Z"/><path fill="#181415" d="M88.55 25.623Zm-.27.186a1.25 1.25 0 0 0-.158.174h.001c.046-.064.1-.121.156-.174"/><path fill="#131112" d="M88.477 26.045c.138-.035.263.067.284.226.02.158-.073.314-.21.349-.136.035-.262-.066-.283-.225-.02-.157.074-.316.21-.35Zm1.1 1.549a1.34 1.34 0 0 0 .233-.393 1.448 1.448 0 0 0 .088-.71 1.222 1.222 0 0 0-.258-.622.9.9 0 0 0-.707-.34l-.004.001a.895.895 0 0 0-.378.093 1.07 1.07 0 0 0-.232.147c-.014.012-.026.026-.04.04-.057.052-.11.11-.156.173-.018.024-.036.047-.052.072a1.242 1.242 0 0 0-.103.192c-.004.008-.008.014-.01.022-.006.011-.013.02-.017.031a1.443 1.443 0 0 0-.09.71c.06.463.342.803.7.917a.858.858 0 0 0 .147.032l.04.005.025.002c.02.001.037.006.057.006.068 0 .138-.01.208-.028.214-.054.401-.18.549-.35"/><path fill="#fff" d="M88.552 26.62c.136-.035.23-.191.209-.35-.02-.157-.146-.26-.284-.225-.135.034-.23.192-.209.35.02.159.147.26.284.225"/><path fill="#211D23" d="M89.028 27.944a.888.888 0 0 1-.208.028c-.02 0-.037-.005-.057-.006-.008 0-.017-.003-.026-.003a.848.848 0 0 1-.186-.036c-.358-.114-.64-.454-.7-.916a1.442 1.442 0 0 1 .09-.71c.004-.012.011-.021.016-.032l.01-.022.044-.089c.019-.035.038-.07.06-.103.016-.025.034-.048.051-.072.047-.064.1-.122.157-.175l.04-.038a1.07 1.07 0 0 1 .4-.21l.003-.002a.88.88 0 0 1 .207-.028h.004a.9.9 0 0 1 .707.34c.134.163.227.376.258.621a1.448 1.448 0 0 1-.088.71c-.056.146-.136.28-.233.393-.148.17-.335.296-.55.35Zm-.394-3.072c-.889.226-1.504 1.252-1.37 2.288.132 1.036.963 1.695 1.852 1.47.89-.225 1.505-1.251 1.371-2.287-.132-1.037-.963-1.697-1.853-1.47Z"/><path fill="#211C36" d="M84.776 50.432c-.002 0-.003-.002-.005-.003-.008-.003-.015-.01-.022-.014a.99.99 0 0 1-.207-.15c-.012-.014-.026-.023-.039-.036l-.024-.028a1.12 1.12 0 0 1-.16-.231c-.006-.011-.01-.024-.016-.036-.009-.018-.017-.04-.025-.06a1.284 1.284 0 0 1-.071-.229c-.003-.015-.011-.027-.014-.042l-1.995-.179c.011.062.03.12.05.178.016.051.028.106.05.153.032.067.076.122.118.18.028.038.05.082.083.115.052.055.116.094.178.135.03.02.056.048.09.065.099.05.206.082.318.091l2.005.18c-.013-.001-.023-.008-.035-.01a.9.9 0 0 1-.276-.076l-.003-.003"/><path fill="#221D39" d="m84.181 49.526-2.005-.179c.004.028.017.05.022.077l1.995.179a.945.945 0 0 1-.012-.077"/><path fill="#3A3492" d="M89.116 28.63c-.889.225-1.72-.433-1.853-1.47-.133-1.036.482-2.062 1.371-2.287.89-.227 1.72.433 1.853 1.47.134 1.036-.48 2.062-1.37 2.287Zm4.496-8.038h-.013a.87.87 0 0 0-.212.028l-11.448 2.9a1.108 1.108 0 0 0-.418.22c-.016.012-.028.028-.043.041a1.267 1.267 0 0 0-.215.255 1.17 1.17 0 0 0-.06.106 1.32 1.32 0 0 0-.137.358c-.003.011-.007.022-.009.035-.015.07-.024.143-.028.215l-.001.059c-.002.072 0 .145.008.218l3.145 24.5c.005.042.018.08.026.118.017.082.04.158.071.23.013.031.025.065.04.095.046.087.1.163.16.231.021.023.043.043.064.063a.97.97 0 0 0 .207.151l.022.014c.002 0 .003.003.005.003l.003.003a.9.9 0 0 0 .276.076.91.91 0 0 0 .347-.016l11.447-2.9c.582-.148.991-.821.904-1.507l-3.145-24.5c-.076-.59-.504-.997-.996-.996"/><path fill="#30213E" d="M91.688 20.415c-.012-.002-.024.003-.035.002a.94.94 0 0 0-.189.016c-.027.005-.054 0-.082.006L79.935 23.34c-.052.014-.101.036-.15.057l-.03.011c-.085.04-.165.091-.239.152-.016.013-.029.028-.042.041a1.262 1.262 0 0 0-.161.18l-.026.034-.03.041c-.022.034-.041.07-.06.107l-.03.062c-.01.018-.02.035-.027.053-.01.023-.019.047-.027.07l-.016.054c-.013.039-.027.078-.035.118l-.01.035-.001.013a1.55 1.55 0 0 0-.022.166l-.005.037v.058c-.002.028.001.056.002.084.001.045 0 .089.005.134l3.145 24.5 2.005.18-3.145-24.5a1.582 1.582 0 0 1-.01-.136c-.001-.027.002-.054.002-.082l.001-.059c.002-.012 0-.024.002-.036.003-.056.012-.112.023-.167l.003-.012c.002-.013.006-.024.009-.035.01-.04.019-.08.031-.12.006-.017.015-.035.02-.053a1.62 1.62 0 0 1 .028-.069c.008-.018.013-.037.02-.053.012-.023.025-.041.037-.063.019-.036.038-.072.061-.106.009-.013.015-.029.024-.042.008-.012.021-.021.03-.033.05-.066.102-.126.161-.18.015-.013.028-.029.043-.04.074-.063.153-.113.239-.154.008-.003.012-.008.02-.011a.97.97 0 0 1 .16-.056l11.447-2.9a.927.927 0 0 1 .202-.029h.023c.027 0 .054 0 .08.003l-2.004-.18"/><path fill="#F68388" d="M48.742 9.33c-.059-.2-.11-.4-.172-.598a4.078 4.078 0 0 1-2.081.86l.324-1.953c-2.338 1.496-4.869 3.053-7.773 3.156a7.21 7.21 0 0 0-.084-2.488c-2.347 2.85-5.734 4.924-9.267 6.623.429 1.01.986 2.535 1.162 3.987-.654 1.134-1.317 2.269-2.28 3.19a2.12 2.12 0 0 1-.403-.507c-.876-1.423-1.356-2.947-3.502-3.267-.976-.144-2.021.123-2.75.703-.947.756-1.279 1.912-1.33 3.042a7.79 7.79 0 0 0-.005.478c.015.802.132 1.622.555 2.337.583.988 1.727 1.688 2.977 1.933 1.208.237 2.494.06 3.62-.39.038-.015.08-.024.118-.04 1.507 3.186 3.617 6.11 6.155 8.76 1.236 1.291 2.584 2.547 4.278 3.36a8.378 8.378 0 0 0 3.09.803c.853.05 1.705-.04 2.495-.329 2.57-.939 3.74-3.492 4.437-5.83 2.3-7.72 2.708-16.1.436-23.83Z"/><path fill="#fff" d="M45.639 32.003c.053.32-.524 1.299-.614 1.405-.351.422-.8.646-1.382.812-1.209.345-2.607.224-3.693-.357-1.698-.908-2.54-2.934-2.47-4.58 2.32 1.483 5.353 1.977 8.08 2.623.045.011.07.045.079.097"/><path stroke="#F57778" stroke-linecap="round" stroke-linejoin="round" stroke-miterlimit="10" stroke-width="1.333" d="m43.165 21.588 2.505 3.924c.576.901 1.154 1.807 1.548 2.78.053.127.102.265.064.397-.053.188-.265.308-.47.387-1.066.416-2.3.26-3.453.095"/><path fill="#211D23" d="M48.061 20.549c0 .76-.326 1.378-.727 1.378-.402 0-.727-.617-.727-1.378 0-.761.325-1.378.727-1.378.401 0 .727.617.727 1.378ZM35.92 16.615a3.288 3.288 0 0 1 1.468-1.268 3.012 3.012 0 0 1 1.12-.224c.394 0 .807.098 1.146.307.207.128.257.377.11.558a.508.508 0 0 1-.54.143l-.04-.014a2.34 2.34 0 0 0-1.41.01c-.506.136-.977.446-1.5.759a.267.267 0 0 1-.339-.05.191.191 0 0 1-.015-.221Zm12.988-.375c-.461-.254-.864-.509-1.285-.613a2.04 2.04 0 0 0-1.143-.015l-.057.015c-.242.068-.503-.046-.582-.256-.063-.169.012-.348.168-.447.3-.188.666-.277 1.015-.277.35-.003.682.08.986.2.585.269 1 .672 1.254 1.121.06.105.01.233-.112.285a.29.29 0 0 1-.244-.014m-9.58 4.31c0 .76-.325 1.378-.727 1.378-.402 0-.727-.617-.727-1.378 0-.761.325-1.378.727-1.378.402 0 .727.617.727 1.378Z"/><path fill="#362F6D" d="M24.329 45s-.244.097-.678.28C20.664 46.542 8.66 51.866 5.013 57.474.835 63.896 0 120.201 0 120.201s21.722 11.347 66-.856L56.532 54.69l-14.76-8.777L24.33 45"/><path fill="#211D23" d="M24.666 18.333c2.146.32 2.626 1.844 3.502 3.267.11.18.237.362.403.506.963-.92 1.625-2.055 2.28-3.189-.175-1.452-.733-2.977-1.162-3.987 3.533-1.7 6.92-3.773 9.267-6.623.172.82.2 1.66.084 2.488 2.904-.103 5.435-1.66 7.773-3.156l-.324 1.952a4.078 4.078 0 0 0 2.08-.859c.062.198.114.399.173.598.788-.913 1.157-2.13.978-3.27-.287-1.824-1.755-3.397-3.57-4.355C44.336.748 42.205.338 40.093.137c-2.183-.206-4.407-.203-6.56.173-4.479.784-8.504 3.219-11.06 6.499a15.714 15.714 0 0 0-3.238 11.297c.145 1.377.537 2.808 1.35 3.972.052-1.13.384-2.286 1.331-3.042.729-.58 1.774-.847 2.75-.703Z"/><path fill="#3A3492" d="M31.832 73.108c-2.2-2.951-4.517-5.856-6.604-8.827-1.709-2.429-3.431-4.921-5.931-6.766-2.5-1.846-5.973-2.96-9.12-2.143-3.966 1.03-6.25 4.85-6.307 8.436-.056 3.586 1.623 7 3.28 10.287 2.551 5.059 5.146 10.126 8.115 15.018 4.552-6.015 10.157-11.43 16.567-16.005Z"/><path fill="#2C2852" d="M35.266 77.994c-1.07-1.656-2.235-3.278-3.434-4.886-6.41 4.575-12.015 9.99-16.567 16.005a99.303 99.303 0 0 0 3.963 6.041c.43-.624.877-1.24 1.334-1.847 4.184-5.581 9.14-10.724 14.704-15.313"/><path fill="#F68388" d="M101.535 39.623c-.173-.159-.487-.132-.69-.002-.201.13-.316.335-.422.533-.866 1.625-1.442 3.327-2.287 4.951l-1.962 3.774c1.665-3.945 3.169-7.974 3.44-12.195.012-.194.021-.395-.06-.577a.556.556 0 0 0-.502-.332c-.17.005-.319.099-.439.203-1.366 1.195-1.34 3.932-1.927 5.432-.475 1.214-.883 2.447-1.35 3.657-.264.68-.59 1.347-.884 2.018-.221.506-.814 1.328-.814 1.862.266-2.024 1.327-4.152 2.113-6.052.882-2.13 1.224-4.68 1.012-6.925-.045-.48-.04-2.48-.728-2.525-.256-.017-.5.12-.65.301-.149.181-.219.401-.275.618-.445 1.735-.591 3.517-1.175 5.237-1.11 3.267-2.802 6.414-3.858 9.678 1.31-4.049 2.628-8.128 3.04-12.317.063-.635-.086-1.488-.816-1.57-.606-.068-1.033.487-1.298.965-2.546 4.59-4.818 9.38-8.562 13.305l-1.25-8.22c-2.104.412-2.896 2.956-3.057 4.567a98.453 98.453 0 0 1-.99 7.276c-.102.587-.207 1.18-.478 1.725-.41.82-1.165 1.468-1.938 2.06-1.524 1.17-3.178 2.204-4.829 3.235L50.435 72.463l-12.788 7.99c-.172.106-.374.22-.58.176-.207-.043-.327-.226-.422-.39-.437-.757-.9-1.503-1.379-2.245-5.564 4.59-10.52 9.732-14.704 15.313a55.976 55.976 0 0 0-1.334 1.847c.426.6.847 1.203 1.292 1.795 2.54 3.384 5.459 7.352 9.069 9.963 3.57 2.582 8.202-1.513 11.164-3.704 8.901-6.583 16.642-14.227 24.119-21.996 3.759-3.906 7.46-7.855 11.233-11.75 1.885-1.945 3.833-3.843 5.724-5.782 1.818-1.865 4.395-2.907 6.586-4.445.282-.198.56-.4.833-.606.547-.415 1.078-.85 1.66-1.227.266-.171.528-.347.786-.527 2.505-1.747 4.646-3.904 6.133-6.382.805-1.34 1.48-2.693 1.998-4.139l.763-2.133c.479-1.337.961-2.688 1.076-4.084.015-.18.015-.384-.129-.514m-61.751 2.764c-1.714.417-3.376-.725-4.597-1.847-3.389-3.116-6.115-6.762-8.052-10.7l-2.79 15.888s4.964 11.821 12.687 10.27c4.943-.995 5.082-9.13 4.543-14.856-.436.587-1.022 1.058-1.79 1.245Z"/><path fill="#F57778" d="M39.784 42.387c.769-.187 1.355-.659 1.791-1.245a59.15 59.15 0 0 0-.2-1.823 8.376 8.376 0 0 1-3.09-.804c-1.695-.812-3.043-2.068-4.28-3.359-2.536-2.65-4.647-5.574-6.154-8.76-.039.016-.08.025-.118.04l-.598 3.404c1.937 3.938 4.663 7.584 8.052 10.7 1.22 1.122 2.883 2.264 4.597 1.847M22.14 20.238c.569-.767 1.926-1.122 2.818-.581.053.032.08.088.064.144-.022.074-.112.118-.202.1l-.015-.004c-.8-.167-1.573.22-1.925.726a1.88 1.88 0 0 0-.213.401c.719 1.004 1.962 1.802 3.41 2.116.065.015.111.067.102.125-.009.061-.077.105-.153.097-1.288-.137-2.535-.64-3.508-1.416.006.2.028.4.077.593.186.668.57 1.34 1.074 1.933.518.582 1.122 1.147 1.936 1.465.037.016.062.05.052.085-.012.039-.06.062-.107.053-.934-.192-1.723-.716-2.343-1.306-.626-.596-1.14-1.282-1.407-2.077-.243-.798-.243-1.687.34-2.454"/></svg>